<?xml version="1.0" standalone="no"?>
<!DOCTYPE svg PUBLIC "-//W3C//DTD SVG 20010904//EN"
 "http://www.w3.org/TR/2001/REC-SVG-20010904/DTD/svg10.dtd">
<svg version="1.0" xmlns="http://www.w3.org/2000/svg"
 width="24.000000pt" height="24.000000pt" viewBox="0 0 24.000000 24.000000"
 preserveAspectRatio="xMidYMid meet">

<g transform="translate(0.000000,24.000000) scale(0.100000,-0.100000)"
fill="#000000" stroke="none">
<path d="M100 205 c-7 -9 -9 -19 -5 -23 4 -4 10 -1 12 6 3 6 8 12 12 12 10 0
35 -52 32 -64 -2 -9 18 -26 32 -26 4 0 7 12 7 26 0 14 -4 23 -9 19 -5 -3 -12
4 -16 15 -7 22 -32 50 -44 50 -5 0 -14 -7 -21 -15z"/>
<path d="M60 150 c-8 -5 -11 -12 -8 -16 4 -3 0 -20 -8 -36 -12 -23 -13 -33 -3
-44 13 -16 39 -19 39 -4 0 6 -7 10 -15 10 -18 0 -18 2 -4 34 7 14 16 23 20 20
5 -3 9 6 9 20 0 28 -6 31 -30 16z"/>
<path d="M194 83 c-7 -25 -54 -34 -54 -11 0 8 -6 6 -17 -5 -16 -16 -16 -18 0
-34 11 -11 17 -13 17 -5 0 7 13 12 29 12 37 0 57 22 42 47 -10 17 -11 16 -17
-4z"/>
</g>
</svg>
